<?xml version="1.0" standalone="no"?>
<!DOCTYPE svg PUBLIC "-//W3C//DTD SVG 20010904//EN"
 "http://www.w3.org/TR/2001/REC-SVG-20010904/DTD/svg10.dtd">
<svg version="1.0" xmlns="http://www.w3.org/2000/svg"
 width="300.000000pt" height="300.000000pt" viewBox="0 0 300.000000 300.000000"
 preserveAspectRatio="xMidYMid meet">
<metadata>
Created by potrace 1.10, written by Peter Selinger 2001-2011
</metadata>
<g transform="translate(0.000000,300.000000) scale(0.100000,-0.100000)"
fill="#000000" stroke="none">
<path d="M1355 2301 c-51 -13 -65 -24 -272 -233 -203 -205 -223 -232 -223
-301 0 -38 33 -94 88 -150 l57 -58 -22 -18 c-12 -10 -33 -35 -47 -56 -31 -45
-35 -118 -10 -168 20 -40 558 -582 599 -604 38 -20 122 -20 160 0 17 8 121
107 232 219 164 165 203 210 212 243 13 49 13 51 0 99 -7 26 -32 62 -72 103
l-60 63 33 33 c59 58 77 144 44 210 -19 37 -557 582 -594 601 -34 18 -89 25
-125 17z m100 -31 c14 -5 23 -14 20 -20 -3 -5 -1 -10 5 -10 6 0 24 -13 39 -29
16 -16 31 -27 34 -25 4 5 23 -17 56 -64 8 -12 18 -19 22 -17 4 3 9 -4 12 -15
3 -11 16 -24 29 -29 12 -6 19 -10 13 -10 -5 -1 8 -13 28 -27 21 -14 36 -28 33
-31 -7 -7 17 -32 27 -26 4 2 7 0 7 -6 0 -5 16 -26 35 -45 19 -20 35 -34 35
-30 0 3 20 -15 45 -39 25 -25 45 -48 45 -52 0 -3 14 -19 30 -35 17 -16 30 -27
30 -24 0 3 11 -6 24 -19 30 -30 46 -107 33 -160 -7 -27 -14 -37 -24 -33 -9 4
-13 0 -11 -12 2 -10 -3 -16 -10 -14 -8 1 -12 -3 -10 -10 3 -7 -1 -19 -9 -26
-17 -17 -16 -27 3 -46 8 -9 13 -16 9 -16 -3 0 10 -14 30 -31 19 -17 38 -42 41
-55 3 -13 10 -22 14 -19 12 7 20 -21 20 -70 0 -48 -18 -98 -31 -89 -5 3 -9 1
-9 -5 0 -16 -381 -392 -407 -402 -37 -14 -107 -11 -129 6 -10 8 -14 15 -9 15
6 0 -5 7 -22 15 -18 8 -42 29 -53 47 -11 18 -20 29 -20 25 0 -5 -16 8 -35 29
-19 20 -35 41 -35 46 0 5 -4 7 -9 4 -11 -7 -82 70 -73 79 4 4 2 5 -4 3 -12 -3
-154 137 -154 152 0 5 -9 12 -20 15 -11 4 -26 18 -34 33 -8 15 -17 26 -20 25
-3 -2 -5 0 -3 3 1 3 -10 12 -24 20 -15 7 -41 35 -58 61 -27 41 -31 54 -27 96
2 27 10 53 18 58 7 5 9 9 5 9 -5 0 -2 6 5 14 33 34 49 59 51 75 1 18 -42 81
-55 81 -5 0 -7 4 -4 9 3 4 -6 13 -19 19 -14 7 -25 18 -25 27 0 8 -4 15 -10 15
-5 0 -10 25 -10 55 0 57 23 120 40 110 6 -4 10 0 10 7 0 14 318 333 374 376
31 24 95 30 141 12z"/>
<path d="M1355 2215 c-16 -9 -51 -38 -77 -65 -25 -28 -51 -50 -57 -50 -6 0
-10 -3 -9 -7 2 -5 -51 -63 -117 -129 -152 -154 -157 -161 -149 -199 4 -16 12
-33 18 -37 6 -4 7 -8 3 -8 -12 0 41 -50 53 -50 6 0 9 -4 6 -8 -8 -13 50 -43
68 -36 9 3 16 10 16 16 0 5 4 7 8 4 5 -3 15 6 22 19 7 14 17 25 21 25 8 0 69
61 125 123 104 116 200 115 309 -4 22 -24 53 -54 69 -67 16 -12 26 -22 22 -22
-4 0 -1 -7 8 -15 8 -8 19 -15 25 -15 6 0 11 -7 11 -15 0 -8 4 -15 9 -15 5 0
12 -9 16 -19 3 -11 12 -18 19 -15 7 3 13 -3 13 -13 0 -19 -14 -33 -34 -33 -13
0 -213 193 -213 206 0 5 -23 19 -51 32 -70 32 -90 22 -216 -104 -55 -57 -104
-100 -107 -97 -3 4 -6 2 -6 -4 0 -13 -79 -93 -91 -93 -5 0 -8 -3 -7 -8 2 -4
-12 -22 -31 -39 -31 -31 -33 -36 -29 -86 4 -48 9 -58 55 -102 28 -28 62 -60
77 -72 14 -13 26 -29 26 -37 0 -8 9 -17 19 -21 11 -3 22 -13 25 -21 3 -8 10
-12 16 -9 5 3 10 2 10 -2 0 -14 100 -118 111 -116 5 2 9 -2 9 -8 0 -6 27 -36
60 -66 33 -31 57 -59 54 -64 -3 -5 1 -9 10 -9 8 0 16 -3 18 -8 2 -4 21 -22 43
-40 45 -36 86 -41 125 -14 29 20 320 310 362 361 44 53 36 100 -32 172 -41 44
-67 53 -96 34 -13 -8 -24 -20 -24 -25 0 -6 -4 -10 -9 -10 -6 0 -55 -45 -110
-101 -55 -55 -105 -98 -111 -94 -5 3 -10 -1 -10 -9 0 -16 -8 -18 -60 -19 -59
-1 -81 3 -74 15 4 7 3 8 -5 4 -7 -5 -33 14 -66 48 -30 31 -60 56 -66 56 -5 0
-8 4 -5 8 3 5 -6 15 -19 22 -14 7 -25 16 -25 20 0 3 -25 32 -57 64 -53 55 -55
60 -38 72 23 17 45 18 45 2 0 -7 13 -22 29 -33 17 -11 29 -21 27 -22 -3 -4 71
-83 77 -83 2 0 28 -23 58 -51 30 -28 65 -55 78 -60 36 -14 76 -2 115 34 19 18
39 37 46 42 6 6 57 57 112 115 55 58 105 104 109 103 5 -2 9 2 9 7 0 6 17 27
38 48 31 31 38 46 41 83 2 39 -2 51 -29 80 -66 74 -384 389 -392 389 -4 0 -8
4 -8 9 0 4 -18 26 -39 47 -22 21 -37 42 -34 47 3 6 1 7 -5 3 -7 -4 -22 4 -34
18 -30 33 -66 40 -103 21z m349 -301 c243 -244 276 -281 276 -308 0 -27 -25
-56 -194 -225 -170 -170 -198 -194 -226 -194 -27 0 -51 20 -179 147 l-147 146
-39 -40 -40 -41 145 -140 c176 -170 188 -179 260 -179 72 0 90 12 238 161
l123 124 55 -57 c39 -40 54 -64 54 -84 0 -22 -36 -64 -199 -227 -191 -192
-200 -200 -231 -194 -24 5 -94 70 -306 282 -247 248 -274 278 -274 308 0 29
21 53 198 229 147 147 202 196 217 193 11 -2 24 -4 29 -4 5 -1 73 -64 151
-141 l141 -140 38 39 39 40 -147 143 c-81 79 -157 148 -169 155 -35 20 -127
16 -164 -6 -17 -11 -86 -75 -153 -142 l-122 -123 -54 56 c-84 87 -88 79 145
312 188 187 201 198 230 193 22 -5 100 -76 305 -283z"/>
</g>
</svg>
